<?xml version="1.0" encoding="UTF-8"?>
<svg width="100px" height="100px" viewBox="0 0 100 100" version="1.1" xmlns="http://www.w3.org/2000/svg" xmlns:xlink="http://www.w3.org/1999/xlink">
    <!-- Generator: Sketch 59.1 (86144) - https://sketch.com -->
    <title>Artboard</title>
    <desc>Created with Sketch.</desc>
    <g id="Artboard" stroke="none" stroke-width="1" fill="none" fill-rule="evenodd">
        <g id="beer" transform="translate(31.919643, 0.000000)" fill-rule="nonzero">
            <g id="Group" transform="translate(1.951452, 1.951452)">
                <path d="M0.129419413,52.9505019 L32.155673,52.9505019 L32.155673,47.8558463 C32.155673,35.1967776 25.3812076,37.1224703 24.1949199,29.8466769 L24.1949199,8.49681691 L16.1399117,8.49681691 L8.08490355,8.49681691 L8.08490355,29.8468721 C6.90407998,37.1226655 0.129419413,35.1967776 0.129419413,47.8560415 L0.129419413,52.9505019 L0.129419413,52.9505019 Z" id="Path" fill="#FEFEFE"></path>
                <path d="M8.08470841,8.49681691 L16.1397166,8.49681691 L24.1947248,8.49681691 C25.1647916,8.49681691 25.9576665,7.70882062 25.9576665,6.73758298 L25.9576665,1.75942907 C25.9576665,0.793850651 25.1649867,0.000195145194 24.1947248,0.000195145194 L8.08451326,0.000195145194 C7.11991057,0.000195145194 6.32723079,0.793850651 6.32723079,1.75942907 L6.32723079,6.73758298 C6.32723079,7.70862547 7.12010571,8.49681691 8.08470841,8.49681691 L8.08470841,8.49681691 Z" id="Path" fill="#F0E6E2"></path>
                <path d="M0.129419413,82.4033758 L32.155673,82.4033758 L32.155673,52.9505019 L0.129419413,52.9505019 L0.129419413,82.4033758 Z M10.6237425,68.3845353 C10.6237425,65.3320742 13.0962321,62.8625118 16.1397166,62.8625118 C19.1888603,62.8625118 21.6556907,65.3320742 21.6556907,68.3845353 C21.6556907,71.4313373 19.1886651,73.9065589 16.1397166,73.9065589 C13.0962321,73.9065589 10.6237425,71.4313373 10.6237425,68.3845353 Z" id="Shape" fill="#FF814F"></path>
                <path d="M4.10433188,95.6229016 L28.1809557,95.6229016 C30.4926457,94.7461142 32.1558681,92.4984319 32.1558681,89.884462 L32.1558681,82.4033758 L0.129419413,82.4033758 L0.129419413,89.884462 C0.129419413,92.4984319 1.78698269,94.7461142 4.10433188,95.6229016 Z" id="Path" fill="#FEFEFE"></path>
                <path d="M10.6237425,68.3845353 C10.6237425,71.4313373 13.0962321,73.9065589 16.1397166,73.9065589 C19.1888603,73.9065589 21.6556907,71.4313373 21.6556907,68.3845353 C21.6556907,65.3320742 19.1886651,62.8625118 16.1397166,62.8625118 C13.0962321,62.8625118 10.6237425,65.3322694 10.6237425,68.3845353 Z" id="Path" fill="#FAF7F5"></path>
            </g>
            <path d="M2.08087136,71.585502 C3.15865827,71.585502 4.0323233,70.7091049 4.0323233,69.631318 C4.0323233,68.5535311 3.15865827,67.679866 2.08087136,67.679866 C1.00308445,67.679866 0.129419413,68.5535311 0.129419413,69.631318 L0.129419413,69.6367821 C0.129419413,70.714569 1.00308445,71.585502 2.08087136,71.585502 Z" id="Path" fill="#000000"></path>
            <path d="M25.5585946,70.3359873 C25.5585946,66.2151062 22.2087321,62.8625118 18.0911685,62.8625118 C13.9736049,62.8625118 10.6235474,66.2151062 10.6235474,70.3359873 C10.6235474,74.4568684 13.9736049,77.8094628 18.0911685,77.8094628 C22.2087321,77.8094628 25.5585946,74.4568684 25.5585946,70.3359873 Z M14.5266464,70.3359873 C14.5266464,68.3671674 16.1256661,66.7654157 18.0913637,66.7654157 C20.0568661,66.7654157 21.6558858,68.3671674 21.6558858,70.3359873 C21.6558858,72.3048072 20.0568661,73.9065589 18.0913637,73.9065589 C16.1256661,73.9065589 14.5266464,72.3048072 14.5266464,70.3359873 Z" id="Shape" fill="#000000"></path>
            <path d="M30.9506514,36.3658924 C29.5338973,34.9345024 28.5021647,33.8918416 28.0976287,31.633036 L28.0976287,11.8402395 C29.1535593,11.1851371 29.8605704,10.0193397 29.8605704,8.68883978 L29.8605704,3.71068587 C29.8605704,1.66458851 28.1944207,2.84217094e-14 26.1463719,2.84217094e-14 L10.0361604,2.84217094e-14 C7.99123386,2.84217094e-14 6.32742593,1.66458851 6.32742593,3.71068587 L6.32742593,8.68883978 C6.32742593,10.0181688 7.03190009,11.1829905 8.08470841,11.8384832 L8.08470841,31.6336215 C7.68212387,33.8930125 6.65078152,34.9354781 5.23480799,36.3670633 C2.9601956,38.6666543 0.129419413,41.5284585 0.129419413,49.8071031 L0.129419413,60.8345629 C0.129419413,61.9123498 1.00308445,62.7860149 2.08087136,62.7860149 C3.15865827,62.7860149 4.0323233,61.9123498 4.0323233,60.8345629 L4.0323233,56.8532107 L32.155673,56.8532107 L32.155673,82.4029855 L4.0323233,82.4029855 L4.0323233,78.4218284 C4.0323233,77.3440415 3.15865827,76.4703765 2.08087136,76.4703765 C1.00308445,76.4703765 0.129419413,77.3440415 0.129419413,78.4218284 L0.129419413,91.8357188 C0.129419413,96.290103 3.7503385,99.9141444 8.20121009,99.9141444 L27.9813221,99.9141444 C32.4351209,99.9141444 36.0585769,96.290103 36.0585769,91.8357188 L36.0585769,49.8072983 C36.0585769,41.5268974 33.2264347,38.6652882 30.9506514,36.3658924 Z M32.155673,91.8359139 C32.155673,94.1382369 30.2830597,96.0114357 27.9813221,96.0114357 L8.20121009,96.0114357 C5.90259485,96.0114357 4.0323233,94.1382369 4.0323233,91.8359139 L4.0323233,86.3062797 L32.155673,86.3062797 L32.155673,91.8359139 Z M10.2303298,3.90290389 L25.9578616,3.90290389 L25.9578616,8.49681691 L10.2303298,8.49681691 L10.2303298,3.90290389 Z M32.155673,52.9505019 L4.0323233,52.9505019 L4.0323233,49.8072983 C4.0323233,43.1327472 5.96426073,41.1797341 8.00957751,39.1119756 C9.58888757,37.5152976 11.3791496,35.7055211 11.9624386,32.1109466 C11.9792211,32.0075196 11.9876123,31.903117 11.9876123,31.798324 L11.9876123,12.3997208 L24.1949199,12.3997208 L24.1949199,31.798324 C24.1949199,31.9035073 24.2033112,32.0084954 24.2202888,32.1123126 C24.8061147,35.7055211 26.596767,37.5149073 28.1766625,39.111195 C30.222955,41.1787584 32.155673,43.1317715 32.155673,49.8072983 L32.155673,52.9505019 Z" id="Shape" fill="#000000"></path>
        </g>
    </g>
</svg>